<svg width="215" height="39" viewBox="0 0 215 39" fill="none" xmlns="http://www.w3.org/2000/svg">
<path d="M17.9269 2.15226C18.1015 2.05248 18.2992 2 18.5004 2C18.7015 2 18.8992 2.05248 19.0739 2.15226L27.7459 7.10804C27.9229 7.20913 28.07 7.3552 28.1723 7.53145C28.2747 7.70771 28.3286 7.90788 28.3287 8.11169V17.3503L36.418 21.9754C36.5943 22.0761 36.7409 22.2214 36.8432 22.3968C36.9455 22.5722 36.9999 22.7714 37.0007 22.9744V32.886C37.0007 33.0898 36.9467 33.29 36.8444 33.4662C36.7421 33.6425 36.595 33.7886 36.418 33.8896L27.7459 38.8454C27.5713 38.9452 27.3736 38.9977 27.1724 38.9977C26.9713 38.9977 26.7736 38.9452 26.5989 38.8454L18.5004 34.2203L10.4018 38.8477C10.2272 38.9475 10.0295 39 9.82832 39C9.62716 39 9.42948 38.9475 9.25481 38.8477L0.582762 33.892C0.405789 33.7909 0.258681 33.6448 0.156341 33.4685C0.0540009 33.2923 6.57388e-05 33.0921 0 32.8883L0 22.9767C6.57388e-05 22.7729 0.0540009 22.5728 0.156341 22.3965C0.258681 22.2203 0.405789 22.0742 0.582762 21.9731L8.67205 17.3503V8.11169C8.67211 7.90788 8.72605 7.70771 8.82839 7.53145C8.93073 7.3552 9.07784 7.20913 9.25481 7.10804L17.9269 2.15226ZM9.82832 19.353L3.48732 22.9767L9.82832 26.6005L16.1693 22.9767L9.82832 19.353ZM17.3441 24.9701L10.9846 28.6032V35.8507L17.3441 32.2177V24.9701ZM19.6566 32.2177L26.0161 35.8507V28.6032L19.6566 24.9701V32.2177ZM20.8314 22.9767L27.1724 26.6005L33.5134 22.9767L27.1724 19.353L20.8314 22.9767ZM26.0161 17.3503V10.1028L19.6566 13.7381V20.9856L26.0161 17.3503ZM17.3441 20.9856V13.7381L10.9846 10.1028V17.3503L17.3441 20.9856ZM12.1594 8.11169L18.5004 11.7354L24.8414 8.11169L18.5004 4.48793L12.1594 8.11169ZM34.6882 24.9701L28.3287 28.6032V35.8507L34.6882 32.2177V24.9701ZM8.67205 35.8507V28.6032L2.31255 24.9701V32.2177L8.67205 35.8507Z" fill="white" style="mix-blend-mode:difference"/>
<path d="M56.5474 36.4486C54.7531 36.4486 53.1084 36.1495 51.6131 35.5514C50.1179 34.9201 48.8552 33.9565 47.8251 32.6606C46.8283 31.3647 46.1638 29.6701 45.8315 27.5768H46.8782C47.5427 29.1052 48.3568 30.318 49.3204 31.2152C50.284 32.0791 51.2975 32.6938 52.3607 33.0593C53.4573 33.4248 54.5538 33.6076 55.6503 33.6076C57.3117 33.6076 58.591 33.2587 59.4881 32.5609C60.4185 31.8299 60.8837 30.8497 60.8837 29.6203C60.8837 28.7563 60.6345 28.0586 60.136 27.5269C59.6709 26.9953 59.0395 26.5799 58.2421 26.2809C57.4446 25.9486 56.5641 25.6994 55.6005 25.5332L52.1614 24.8853C50.4335 24.553 48.905 24.0878 47.5759 23.4897C46.2468 22.8584 45.2168 22.0277 44.4858 20.9976C43.7547 19.9676 43.3892 18.6551 43.3892 17.0602C43.3892 14.7342 44.1701 12.9898 45.7318 11.8268C47.3267 10.6306 49.3702 10.0325 51.8623 10.0325C53.5569 10.0325 55.1186 10.3149 56.5474 10.8798C58.0095 11.4447 59.2223 12.3584 60.1859 13.6211C61.1827 14.8505 61.7974 16.4953 62.03 18.5554H60.9834C60.4517 17.0934 59.7041 15.947 58.7405 15.1163C57.8101 14.2524 56.8133 13.6543 55.75 13.322C54.7199 12.9897 53.7231 12.8236 52.7595 12.8236C51.2975 12.8236 50.1179 13.1393 49.2207 13.7706C48.3236 14.4019 47.875 15.3157 47.875 16.5119C47.875 17.3758 48.0744 18.0736 48.4731 18.6052C48.905 19.1037 49.5032 19.5024 50.2674 19.8014C51.0649 20.0673 51.9952 20.3165 53.0585 20.5491L56.4478 21.197C58.0759 21.4628 59.5546 21.8948 60.8837 22.4929C62.246 23.0578 63.3425 23.8552 64.1732 24.8853C65.0371 25.9154 65.4691 27.2611 65.4691 28.9225C65.4691 31.3813 64.655 33.2587 63.0269 34.5546C61.3987 35.8172 59.2389 36.4486 56.5474 36.4486ZM43.7381 36V27.5768H45.8315L46.8782 29.2714V36H43.7381ZM62.03 18.5554L61.0332 16.9106V10.4312H64.1732V18.5554H62.03ZM69.9681 36V33.4082H74.3043V3.20416H70.3668V0.612395H79.3383V33.4082H83.226V36H69.9681ZM87.6619 36V33.4082H91.5496V18.7548C91.5496 16.9605 91.0677 15.648 90.1041 14.8173C89.1738 13.9866 87.8779 13.5712 86.2165 13.5712C85.0535 13.5712 83.9404 13.8537 82.8771 14.4185C81.8138 14.9502 80.9499 15.8141 80.2853 17.0103C79.654 18.1733 79.3383 19.7018 79.3383 21.5958L78.5907 21.6456C78.5907 19.0206 78.9396 16.8608 79.6374 15.1662C80.3684 13.4716 81.4483 12.2089 82.8771 11.3782C84.3059 10.5475 86.0836 10.1322 88.2102 10.1322C90.669 10.1322 92.6627 10.7967 94.1912 12.1258C95.7529 13.4217 96.5337 15.5815 96.5337 18.6052V33.4082H100.272V36H87.6619ZM116.675 36.5483C114.15 36.5483 111.924 36.0332 109.996 35.0032C108.102 33.9731 106.624 32.4779 105.561 30.5174C104.497 28.5237 103.966 26.0981 103.966 23.2405C103.966 20.3829 104.497 17.9739 105.561 16.0135C106.624 14.0198 108.102 12.5079 109.996 11.4779C111.89 10.4146 114.067 9.88295 116.526 9.88295L116.675 12.6741C115.08 12.6741 113.701 13.0562 112.538 13.8204C111.375 14.5847 110.478 15.731 109.847 17.2595C109.249 18.7548 108.95 20.6321 108.95 22.8916C108.95 25.9486 109.714 28.3742 111.242 30.1685C112.771 31.9296 114.864 32.8101 117.523 32.8101C119.184 32.8101 120.53 32.5277 121.56 31.9628C122.623 31.3647 123.437 30.6503 124.002 29.8196C124.6 28.9557 125.015 28.0918 125.248 27.2279H128.338C128.238 28.3244 127.923 29.4375 127.391 30.5673C126.86 31.6638 126.129 32.6606 125.198 33.5578C124.268 34.4549 123.088 35.1859 121.659 35.7508C120.264 36.2824 118.602 36.5483 116.675 36.5483ZM106.408 22.9913V20.3497H123.703L128.637 21.7453V22.9913H106.408ZM123.703 20.3497C123.67 18.9209 123.387 17.625 122.856 16.4621C122.324 15.2991 121.543 14.3853 120.513 13.7208C119.483 13.023 118.204 12.6741 116.675 12.6741L116.526 9.88295C119.184 9.88295 121.41 10.3814 123.204 11.3782C124.999 12.375 126.345 13.7706 127.242 15.5649C128.172 17.326 128.637 19.3861 128.637 21.7453L123.703 20.3497ZM146.658 36.5483C144.133 36.5483 141.907 36.0332 139.979 35.0032C138.085 33.9731 136.607 32.4779 135.543 30.5174C134.48 28.5237 133.948 26.0981 133.948 23.2405C133.948 20.3829 134.48 17.9739 135.543 16.0135C136.607 14.0198 138.085 12.5079 139.979 11.4779C141.873 10.4146 144.05 9.88295 146.509 9.88295L146.658 12.6741C145.063 12.6741 143.684 13.0562 142.521 13.8204C141.358 14.5847 140.461 15.731 139.83 17.2595C139.232 18.7548 138.933 20.6321 138.933 22.8916C138.933 25.9486 139.697 28.3742 141.225 30.1685C142.754 31.9296 144.847 32.8101 147.505 32.8101C149.167 32.8101 150.513 32.5277 151.543 31.9628C152.606 31.3647 153.42 30.6503 153.985 29.8196C154.583 28.9557 154.998 28.0918 155.231 27.2279H158.321C158.221 28.3244 157.906 29.4375 157.374 30.5673C156.842 31.6638 156.111 32.6606 155.181 33.5578C154.251 34.4549 153.071 35.1859 151.642 35.7508C150.247 36.2824 148.585 36.5483 146.658 36.5483ZM136.391 22.9913V20.3497H153.686L158.62 21.7453V22.9913H136.391ZM153.686 20.3497C153.653 18.9209 153.37 17.625 152.838 16.4621C152.307 15.2991 151.526 14.3853 150.496 13.7208C149.466 13.023 148.187 12.6741 146.658 12.6741L146.509 9.88295C149.167 9.88295 151.393 10.3814 153.187 11.3782C154.982 12.375 156.327 13.7706 157.225 15.5649C158.155 17.326 158.62 19.3861 158.62 21.7453L153.686 20.3497ZM175.963 36.5483C173.072 36.5483 170.946 35.6677 169.583 33.9066C168.221 32.1456 167.606 29.7199 167.739 26.6298L168.138 13.4217H161.26V10.6804H163.553C165.048 10.6804 166.227 10.4977 167.091 10.1322C167.955 9.76665 168.57 9.20178 168.935 8.43754C169.301 7.64007 169.484 6.61001 169.484 5.34736V3.6029H172.723V27.6764C172.723 29.2381 173.072 30.4676 173.77 31.3647C174.468 32.2286 175.515 32.6606 176.91 32.6606C178.306 32.6606 179.319 32.2286 179.95 31.3647C180.615 30.5008 180.947 29.2714 180.947 27.6764V21.845H184.187V27.6764C184.187 30.4343 183.506 32.6108 182.143 34.2057C180.781 35.7674 178.721 36.5483 175.963 36.5483ZM172.723 13.4217V10.4811H185.134V13.4217H172.723ZM188.932 36V33.4082H193.418V13.0728H189.381V10.4811H197.904V19.0538L198.452 18.9541V33.4082H204.782V36H188.932ZM196.807 20.5491C196.84 18.0238 197.256 15.9803 198.053 14.4185C198.884 12.8236 199.997 11.6606 201.392 10.9296C202.788 10.1654 204.383 9.78327 206.177 9.78327C208.071 9.78327 209.6 10.2485 210.763 11.1788C211.926 12.1092 212.507 13.4051 212.507 15.0665C212.507 16.0965 212.208 16.9439 211.61 17.6084C211.012 18.273 210.214 18.6052 209.218 18.6052C208.354 18.6052 207.656 18.3727 207.124 17.9075C206.626 17.409 206.377 16.7943 206.377 16.0633C206.377 15.1662 206.692 14.485 207.324 14.0198C207.988 13.5546 208.935 13.3553 210.165 13.4217L209.766 15.1163C209.699 14.1527 209.284 13.4217 208.52 12.9233C207.789 12.3916 206.792 12.1424 205.529 12.1757C204.233 12.1757 203.037 12.4913 201.941 13.1227C200.877 13.7208 200.03 14.6511 199.399 15.9138C198.767 17.1432 198.452 18.6883 198.452 20.5491H196.807Z" fill="white" style="mix-blend-mode:difference"/>
</svg>
